<svg width="600" height="600" viewBox="0 0 600 600" fill="none" xmlns="http://www.w3.org/2000/svg">
<rect x="600" y="499.948" width="141.494" height="141.349" transform="rotate(135 600 499.948)" fill="#FF0000"/>
<rect x="600" y="499.992" width="99.9718" height="99.9718" transform="rotate(180 600 499.992)" fill="#FF0000"/>
<rect x="500.029" y="599.964" width="99.9718" height="99.9718" transform="rotate(180 500.029 599.964)" fill="#FF0000"/>
<rect x="399.998" y="499.948" width="141.494" height="141.349" transform="rotate(135 399.998 499.948)" fill="#FF0000"/>
<rect x="399.998" y="499.992" width="99.9718" height="99.9718" transform="rotate(180 399.998 499.992)" fill="#FF0000"/>
<rect x="300.027" y="599.964" width="99.9718" height="99.9718" transform="rotate(180 300.027 599.964)" fill="#FF0000"/>
<rect x="200" y="499.948" width="141.494" height="141.349" transform="rotate(135 200 499.948)" fill="#FF0000"/>
<rect x="200" y="499.992" width="99.9718" height="99.9718" transform="rotate(180 200 499.992)" fill="#FF0000"/>
<rect x="100.029" y="599.964" width="99.9718" height="99.9718" transform="rotate(180 100.029 599.964)" fill="#FF0000"/>
<rect x="600" y="299.948" width="141.494" height="141.349" transform="rotate(135 600 299.948)" fill="#2810FF"/>
<rect x="600" y="299.993" width="99.9718" height="99.9718" transform="rotate(180 600 299.993)" fill="#2810FF"/>
<rect x="500.029" y="399.964" width="99.9718" height="99.9718" transform="rotate(180 500.029 399.964)" fill="#2810FF"/>
<rect x="399.998" y="299.948" width="141.494" height="141.349" transform="rotate(135 399.998 299.948)" fill="#2810FF"/>
<rect x="399.998" y="299.993" width="99.9718" height="99.9718" transform="rotate(180 399.998 299.993)" fill="#2810FF"/>
<rect x="300.027" y="399.964" width="99.9718" height="99.9718" transform="rotate(180 300.027 399.964)" fill="#2810FF"/>
<rect x="200" y="299.949" width="141.494" height="141.349" transform="rotate(135 200 299.949)" fill="#2810FF"/>
<rect x="200" y="299.993" width="99.9718" height="99.9718" transform="rotate(180 200 299.993)" fill="#2810FF"/>
<rect x="100.029" y="399.965" width="99.9718" height="99.9718" transform="rotate(180 100.029 399.965)" fill="#2810FF"/>
<rect x="600" y="99.9486" width="141.494" height="141.349" transform="rotate(135 600 99.9486)" fill="white"/>
<rect x="600" y="99.9928" width="99.9718" height="99.9718" transform="rotate(180 600 99.9928)" fill="white"/>
<rect x="500.029" y="199.965" width="99.9718" height="99.9718" transform="rotate(180 500.029 199.965)" fill="white"/>
<rect x="399.998" y="99.9487" width="141.494" height="141.349" transform="rotate(135 399.998 99.9487)" fill="white"/>
<rect x="399.998" y="99.9928" width="99.9718" height="99.9718" transform="rotate(180 399.998 99.9928)" fill="white"/>
<rect x="300.027" y="199.965" width="99.9718" height="99.9718" transform="rotate(180 300.027 199.965)" fill="white"/>
<rect x="200" y="99.9487" width="141.494" height="141.349" transform="rotate(135 200 99.9487)" fill="white"/>
<rect x="200" y="99.9928" width="99.9718" height="99.9718" transform="rotate(180 200 99.9928)" fill="white"/>
<rect x="100.029" y="199.965" width="99.9718" height="99.9718" transform="rotate(180 100.029 199.965)" fill="white"/>
</svg>
